<svg width="20" height="20" viewBox="0 0 20 20" fill="none" xmlns="http://www.w3.org/2000/svg">
<g clip-path="url(#clip0_1_255)">
<path d="M12.4167 9.99577L4.93474 17.478C4.72873 17.6836 4.61539 17.9584 4.61539 18.2514C4.61539 18.5446 4.72873 18.8192 4.93474 19.025L5.59035 19.6803C5.79604 19.8865 6.071 20 6.36401 20C6.65702 20 6.93165 19.8865 7.13751 19.6803L16.046 10.772C16.2526 10.5655 16.3658 10.2896 16.365 9.99626C16.3658 9.70163 16.2528 9.42602 16.046 9.21935L7.1458 0.319677C6.93995 0.113499 6.66531 1.90735e-06 6.37214 1.90735e-06C6.07913 1.90735e-06 5.8045 0.113499 5.59848 0.319677L4.94304 0.974962C4.51653 1.40147 4.51653 2.09578 4.94304 2.52212L12.4167 9.99577Z" fill="white"/>
</g>
<defs>
<clipPath id="clip0_1_255">
<rect width="20" height="20" fill="white" transform="translate(20 20) rotate(-180)"/>
</clipPath>
</defs>
</svg>
