<svg width="20" height="20" viewBox="0 0 20 20" fill="none" xmlns="http://www.w3.org/2000/svg">
<path d="M7.58331 9.99577L15.0653 17.478C15.2713 17.6836 15.3846 17.9584 15.3846 18.2514C15.3846 18.5446 15.2713 18.8192 15.0653 19.025L14.4096 19.6803C14.204 19.8865 13.929 20 13.636 20C13.343 20 13.0683 19.8865 12.8625 19.6803L3.95404 10.772C3.74737 10.5655 3.6342 10.2896 3.63501 9.99626C3.6342 9.70163 3.74721 9.42602 3.95404 9.21935L12.8542 0.319677C13.0601 0.113499 13.3347 1.90735e-06 13.6279 1.90735e-06C13.9209 1.90735e-06 14.1955 0.113499 14.4015 0.319677L15.057 0.974962C15.4835 1.40147 15.4835 2.09578 15.057 2.52212L7.58331 9.99577Z" fill="white"/>
</svg>
