<svg width="60" height="60" viewBox="0 0 60 60" fill="none" xmlns="http://www.w3.org/2000/svg">
<g clip-path="url(#clip0_1_208)">
<g clip-path="url(#clip1_1_208)">
<g filter="url(#filter0_i_1_208)">
<path d="M27.7639 1.11803C29.1716 0.414215 30.8284 0.414215 32.2361 1.11803L57.2361 13.618C58.93 14.465 60 16.1963 60 18.0902V41.9098C60 43.8037 58.93 45.535 57.2361 46.382L32.2361 58.882C30.8284 59.5858 29.1716 59.5858 27.7639 58.882L2.76393 46.382C1.07001 45.535 0 43.8037 0 41.9098V18.0902C0 16.1963 1.07001 14.465 2.76393 13.618L27.7639 1.11803Z" fill="url(#paint0_linear_1_208)"/>
</g>
</g>
<path d="M3.30103 49.2785V11.6399H15.1303C16.3849 11.6399 17.4155 11.855 18.222 12.2851C19.0286 12.7153 19.5931 13.3157 19.9158 14.0864C20.2384 14.8571 20.4535 15.5471 20.561 16.1565C20.6685 16.7659 20.7223 17.5008 20.7223 18.3611V29.7602C20.7223 30.6205 20.6685 31.3553 20.561 31.9647C20.4535 32.5741 20.2384 33.2641 19.9158 34.0348C19.5931 34.8055 19.0286 35.406 18.222 35.8361C17.4155 36.2663 16.3849 36.4813 15.1303 36.4813H10.8287V49.2785H3.30103ZM10.8287 32.3411H11.7966C12.7286 32.3411 13.1946 31.7138 13.1946 30.4592V17.6621C13.1946 16.4074 12.7286 15.7801 11.7966 15.7801H10.8287V32.3411ZM24.4862 19.1676H30.8309V20.5118C32.3006 19.4006 33.9496 18.845 35.7777 18.845C38.1794 18.845 39.3803 20.4043 39.3803 23.5229V29.7064H33.0355V24.1682C33.0355 23.8455 32.91 23.5946 32.6591 23.4154C32.4082 23.2362 32.1752 23.1465 31.9601 23.1465C31.6733 23.1465 31.4134 23.2451 31.1804 23.4423C30.9474 23.6394 30.8309 23.8814 30.8309 24.1682V49.2785H24.4862V19.1676ZM42.4989 43.9553V24.4908C42.4989 23.272 42.6512 22.2773 42.9559 21.5066C43.2606 20.7359 43.6997 20.1982 44.2733 19.8935C44.8468 19.5888 45.3487 19.3916 45.7788 19.302C46.209 19.2124 46.7646 19.1676 47.4457 19.1676H52.5C53.6112 19.1676 54.5253 19.32 55.2422 19.6246C55.9592 19.9293 56.461 20.3774 56.7478 20.9689C57.0346 21.5603 57.2138 22.098 57.2855 22.582C57.3572 23.0659 57.393 23.7022 57.393 24.4908V43.9553C57.393 44.7439 57.3572 45.3802 57.2855 45.8641C57.2138 46.348 57.0346 46.8857 56.7478 47.4772C56.461 48.0686 55.9592 48.5167 55.2422 48.8214C54.5253 49.1261 53.6112 49.2785 52.5 49.2785H47.4457C46.7646 49.2785 46.209 49.2336 45.7788 49.144C45.3487 49.0544 44.8468 48.8573 44.2733 48.5526C43.6997 48.2479 43.2606 47.7102 42.9559 46.9395C42.6512 46.1688 42.4989 45.1741 42.4989 43.9553ZM48.8437 24.1144V44.3854C48.8437 44.6005 48.9423 44.8156 49.1394 45.0307C49.3366 45.2458 49.6144 45.3533 49.9728 45.3533C50.6898 45.3533 51.0482 45.0307 51.0482 44.3854V24.1144C51.0482 23.7918 50.9228 23.5408 50.6718 23.3616C50.4209 23.1824 50.1879 23.0928 49.9728 23.0928C49.6861 23.0928 49.4262 23.1913 49.1932 23.3885C48.9602 23.5857 48.8437 23.8276 48.8437 24.1144Z" fill="#1F2235"/>
</g>
<defs>
<filter id="filter0_i_1_208" x="0" y="0.590088" width="60" height="58.8198" filterUnits="userSpaceOnUse" color-interpolation-filters="sRGB">
<feFlood flood-opacity="0" result="BackgroundImageFix"/>
<feBlend mode="normal" in="SourceGraphic" in2="BackgroundImageFix" result="shape"/>
<feColorMatrix in="SourceAlpha" type="matrix" values="0 0 0 0 0 0 0 0 0 0 0 0 0 0 0 0 0 0 127 0" result="hardAlpha"/>
<feOffset/>
<feGaussianBlur stdDeviation="6"/>
<feComposite in2="hardAlpha" operator="arithmetic" k2="-1" k3="1"/>
<feColorMatrix type="matrix" values="0 0 0 0 1 0 0 0 0 1 0 0 0 0 1 0 0 0 0.5 0"/>
<feBlend mode="normal" in2="shape" result="effect1_innerShadow_1_208"/>
</filter>
<linearGradient id="paint0_linear_1_208" x1="0" y1="0" x2="0" y2="60" gradientUnits="userSpaceOnUse">
<stop stop-color="#F5D390"/>
<stop offset="1" stop-color="#EFBA53"/>
</linearGradient>
<clipPath id="clip0_1_208">
<rect width="60" height="60" fill="white"/>
</clipPath>
<clipPath id="clip1_1_208">
<rect width="60" height="60" fill="white"/>
</clipPath>
</defs>
</svg>
