<svg width="16" height="16" viewBox="0 0 16 16" fill="none" xmlns="http://www.w3.org/2000/svg">
<g opacity="0.4">
<path d="M8.00078 7.68027C9.76809 7.68027 11.2008 6.24758 11.2008 4.48027C11.2008 2.71296 9.76809 1.28027 8.00078 1.28027C6.23347 1.28027 4.80078 2.71296 4.80078 4.48027C4.80078 6.24758 6.23347 7.68027 8.00078 7.68027Z" fill="#1F2235" fill-opacity="0.3"/>
<path d="M8.6787 8.32031H7.3219C6.52599 8.32283 5.73836 8.48209 5.00399 8.789C4.26963 9.09591 3.6029 9.54447 3.04189 10.109C2.48087 10.6736 2.03655 11.3432 1.7343 12.0795C1.43205 12.8158 1.27778 13.6044 1.2803 14.4003C1.2803 14.4852 1.31402 14.5666 1.37403 14.6266C1.43404 14.6866 1.51543 14.7203 1.6003 14.7203H14.4003C14.4891 14.7122 14.5716 14.6707 14.631 14.6042C14.6904 14.5377 14.7223 14.4511 14.7203 14.3619C14.7169 12.7606 14.0793 11.2259 12.947 10.0936C11.8147 8.9613 10.28 8.32369 8.6787 8.32031Z" fill="#1F2235" fill-opacity="0.3"/>
</g>
</svg>
