<svg width="14" height="14" viewBox="0 0 14 14" fill="none" xmlns="http://www.w3.org/2000/svg">
<path d="M7.00078 6.68027C8.76809 6.68027 10.2008 5.24758 10.2008 3.48027C10.2008 1.71296 8.76809 0.280273 7.00078 0.280273C5.23347 0.280273 3.80078 1.71296 3.80078 3.48027C3.80078 5.24758 5.23347 6.68027 7.00078 6.68027Z" fill="#1F2235" fill-opacity="0.3"/>
<path d="M7.6787 7.32031H6.3219C5.52599 7.32283 4.73836 7.48209 4.00399 7.789C3.26963 8.09591 2.6029 8.54447 2.04189 9.10905C1.48087 9.67363 1.03655 10.3432 0.734299 11.0795C0.432046 11.8158 0.277779 12.6044 0.280304 13.4003C0.280304 13.4852 0.314018 13.5666 0.37403 13.6266C0.434041 13.6866 0.515435 13.7203 0.600304 13.7203H13.4003C13.4891 13.7122 13.5716 13.6707 13.631 13.6042C13.6904 13.5377 13.7223 13.4511 13.7203 13.3619C13.7169 11.7606 13.0793 10.2259 11.947 9.09359C10.8147 7.9613 9.28 7.32369 7.6787 7.32031Z" fill="#1F2235" fill-opacity="0.3"/>
</svg>
